<svg width="24" height="23" viewBox="0 0 24 23" fill="none" xmlns="http://www.w3.org/2000/svg">
<g clip-path="url(#clip0_612_9183)">
<path d="M21.2142 1.5592H2.23463C1.1868 1.5592 0.33667 2.40661 0.33667 3.4511V16.0637C0.33667 17.1082 1.1868 17.9556 2.23463 17.9556H9.82647L9.19381 19.8475H6.34687C5.82098 19.8475 5.39789 20.2692 5.39789 20.7934C5.39789 21.3176 5.82098 21.7394 6.34687 21.7394H17.102C17.6279 21.7394 18.051 21.3176 18.051 20.7934C18.051 20.2692 17.6279 19.8475 17.102 19.8475H14.255L13.6224 17.9556H21.2142C22.2621 17.9556 23.1122 17.1082 23.1122 16.0637V3.4511C23.1122 2.40661 22.2621 1.5592 21.2142 1.5592ZM20.5816 15.4331H2.86728V4.08173H20.5816V15.4331Z" fill="white"/>
</g>
<defs>
<clipPath id="clip0_612_9183">
<rect width="22.7755" height="22.7027" fill="white" transform="translate(0.33667 0.297974)"/>
</clipPath>
</defs>
</svg>
