<svg width="24" height="23" viewBox="0 0 24 23" fill="none" xmlns="http://www.w3.org/2000/svg">
<g clip-path="url(#clip0_612_9187)">
<path d="M22.9918 17.325H14.3634C14.3371 18.0277 13.8399 18.4601 13.1983 18.4601H11.0346C10.3695 18.4601 9.85955 17.8404 9.86845 17.325H1.35503C1.04187 17.325 0.785645 17.5804 0.785645 17.8926V18.4601C0.785645 19.7088 1.81054 20.7304 3.0632 20.7304H21.2836C22.5363 20.7304 23.5612 19.7088 23.5612 18.4601V17.8926C23.5612 17.5804 23.3049 17.325 22.9918 17.325ZM21.2836 4.27094C21.2836 3.33445 20.5149 2.56824 19.5754 2.56824H4.77136C3.83187 2.56824 3.0632 3.33445 3.0632 4.27094V16.1899H21.2836V4.27094ZM19.0061 13.9196H5.34075V4.83851H19.0061V13.9196Z" fill="black"/>
</g>
<defs>
<clipPath id="clip0_612_9187">
<rect width="22.7755" height="22.7027" fill="white" transform="translate(0.785645 0.297974)"/>
</clipPath>
</defs>
</svg>
