<svg width="24" height="23" viewBox="0 0 24 23" fill="none" xmlns="http://www.w3.org/2000/svg">
<g clip-path="url(#clip0_612_9195)">
<path d="M17.0535 0.297974H7.08918C5.91037 0.297974 4.95398 1.25131 4.95398 2.42635V20.8723C4.95398 22.0473 5.91037 23.0007 7.08918 23.0007H17.0535C18.2323 23.0007 19.1887 22.0473 19.1887 20.8723V2.42635C19.1887 1.25131 18.2323 0.297974 17.0535 0.297974ZM12.0713 21.5818C11.284 21.5818 10.6479 20.9477 10.6479 20.1628C10.6479 19.378 11.284 18.7439 12.0713 18.7439C12.8587 18.7439 13.4948 19.378 13.4948 20.1628C13.4948 20.9477 12.8587 21.5818 12.0713 21.5818ZM17.0535 16.7929C17.0535 17.0856 16.8133 17.325 16.5197 17.325H7.62298C7.32939 17.325 7.08918 17.0856 7.08918 16.7929V2.95845C7.08918 2.66579 7.32939 2.42635 7.62298 2.42635H16.5197C16.8133 2.42635 17.0535 2.66579 17.0535 2.95845V16.7929Z" fill="black"/>
</g>
<defs>
<clipPath id="clip0_612_9195">
<rect width="22.7755" height="22.7027" fill="white" transform="translate(0.683594 0.297974)"/>
</clipPath>
</defs>
</svg>
