<svg width="20" height="20" viewBox="0 0 20 20" fill="none" xmlns="http://www.w3.org/2000/svg">
<path d="M2.50879 9.36C2.86241 9.36557 3.20753 9.25148 3.48816 9.03625C3.74767 8.81891 3.92517 8.51947 3.99129 8.1875C4.09522 7.57993 4.14002 6.96372 4.12504 6.3475C4.13004 5.47875 4.14566 4.90646 4.17191 4.63063C4.19972 4.26728 4.28802 3.91113 4.43316 3.57688C4.54376 3.33385 4.70458 3.11701 4.90504 2.94063C5.11641 2.76979 5.36192 2.64618 5.62504 2.57813C5.94265 2.51521 6.26644 2.48899 6.59004 2.5H7.02754V3.725H6.78566C6.40215 3.67621 6.01492 3.78138 5.70879 4.0175C5.48217 4.41352 5.38904 4.87196 5.44316 5.325C5.46407 6.18697 5.43548 7.04943 5.35754 7.90813C5.30079 8.36901 5.13636 8.81007 4.87754 9.19563C4.59109 9.54415 4.22612 9.81981 3.81254 10C4.34555 10.2043 4.78739 10.5934 5.05754 11.0963C5.36474 11.8626 5.49671 12.6879 5.44379 13.5119C5.44379 14.5265 5.45421 15.1306 5.47504 15.3244C5.48303 15.6014 5.59557 15.8651 5.79004 16.0625C6.09124 16.2358 6.43947 16.3095 6.78504 16.2731H7.02691V17.5H6.58941C6.21575 17.5172 5.84172 17.475 5.48129 17.375C5.15698 17.2616 4.87051 17.0604 4.65379 16.7938C4.4234 16.4983 4.27642 16.1465 4.22816 15.775C4.14865 15.1043 4.1142 14.4291 4.12504 13.7538C4.14186 13.1039 4.09707 12.4539 3.99129 11.8125C3.92411 11.4804 3.74684 11.1807 3.48816 10.9619C3.20852 10.7444 2.86302 10.6288 2.50879 10.6344V9.36Z" fill="#0F172A"/>
<path d="M17.4913 10.6319C17.1371 10.6264 16.7916 10.7419 16.5119 10.9594C16.2532 11.1783 16.076 11.478 16.0088 11.8101C15.9033 12.4521 15.859 13.1027 15.8763 13.7532C15.8863 14.4285 15.851 15.1038 15.7707 15.7744C15.7224 16.146 15.5754 16.4977 15.345 16.7932C15.1283 17.0598 14.8419 17.261 14.5175 17.3744C14.1571 17.4745 13.7831 17.5167 13.4094 17.4994H12.9719V16.2751H13.2138C13.5594 16.3114 13.9076 16.2377 14.2088 16.0644C14.4045 15.8664 14.5175 15.6014 14.525 15.3232C14.5459 15.1307 14.5563 14.5265 14.5563 13.5107C14.5034 12.6867 14.6353 11.8614 14.9426 11.0951C15.2129 10.5927 15.6547 10.2041 16.1875 10.0001C15.7749 9.8197 15.4109 9.54428 15.1251 9.1963C14.8662 8.81075 14.7018 8.36969 14.645 7.9088C14.5671 7.05011 14.5385 6.18765 14.5594 5.32568C14.6135 4.87263 14.5204 4.41419 14.2938 4.01818C13.9877 3.78206 13.6004 3.67688 13.2169 3.72568H12.975V2.50005H13.4125C13.7353 2.48923 14.0583 2.51545 14.375 2.57818C14.6376 2.64667 14.8824 2.77047 15.0932 2.9413C15.2936 3.11769 15.4545 3.33453 15.565 3.57755C15.7102 3.91181 15.7985 4.26796 15.8263 4.6313C15.8521 4.90714 15.8678 5.47943 15.8732 6.34818C15.8577 6.96498 15.902 7.58182 16.0057 8.19005C16.0722 8.52135 16.2497 8.82007 16.5088 9.03693C16.7894 9.25215 17.1346 9.36624 17.4882 9.36068L17.4913 10.6319Z" fill="#0F172A"/>
</svg>
