<svg width="24" height="23" viewBox="0 0 24 23" fill="none" xmlns="http://www.w3.org/2000/svg">
<g clip-path="url(#clip0_612_9191)">
<path d="M19.4514 0.297974H3.79329C2.61447 0.297974 1.65808 1.25131 1.65808 2.42635V20.8723C1.65808 22.0473 2.61447 23.0007 3.79329 23.0007H19.4514C20.6303 23.0007 21.5867 22.0473 21.5867 20.8723V2.42635C21.5867 1.25131 20.6303 0.297974 19.4514 0.297974ZM11.6224 21.5818C10.835 21.5818 10.1989 20.9477 10.1989 20.1628C10.1989 19.378 10.835 18.7439 11.6224 18.7439C12.4097 18.7439 13.0458 19.378 13.0458 20.1628C13.0458 20.9477 12.4097 21.5818 11.6224 21.5818ZM19.4514 16.7929C19.4514 17.0856 19.2112 17.325 18.9176 17.325H4.32709C4.0335 17.325 3.79329 17.0856 3.79329 16.7929V2.95845C3.79329 2.66579 4.0335 2.42635 4.32709 2.42635H18.9176C19.2112 2.42635 19.4514 2.66579 19.4514 2.95845V16.7929Z" fill="black"/>
</g>
<defs>
<clipPath id="clip0_612_9191">
<rect width="22.7755" height="22.7027" fill="white" transform="translate(0.234619 0.297974)"/>
</clipPath>
</defs>
</svg>
