<svg width="24" height="23" viewBox="0 0 24 23" fill="none" xmlns="http://www.w3.org/2000/svg">
<g clip-path="url(#clip0_610_5541)">
<path d="M21.2142 1.5593H2.23463C1.1868 1.5593 0.33667 2.40671 0.33667 3.45119V16.0638C0.33667 17.1083 1.1868 17.9557 2.23463 17.9557H9.82647L9.19381 19.8476H6.34687C5.82098 19.8476 5.39789 20.2693 5.39789 20.7935C5.39789 21.3177 5.82098 21.7395 6.34687 21.7395H17.102C17.6279 21.7395 18.051 21.3177 18.051 20.7935C18.051 20.2693 17.6279 19.8476 17.102 19.8476H14.255L13.6224 17.9557H21.2142C22.2621 17.9557 23.1122 17.1083 23.1122 16.0638V3.45119C23.1122 2.40671 22.2621 1.5593 21.2142 1.5593ZM20.5816 15.4332H2.86728V4.08182H20.5816V15.4332Z" fill="white"/>
</g>
<defs>
<clipPath id="clip0_610_5541">
<rect width="22.7755" height="22.7027" fill="white" transform="translate(0.33667 0.298004)"/>
</clipPath>
</defs>
</svg>
