<svg width="22" height="20" viewBox="0 0 22 20" fill="none" xmlns="http://www.w3.org/2000/svg">
<path d="M4.39664 14.1667H3.51736C3.05096 14.1667 2.60366 13.9911 2.27386 13.6785C1.94407 13.366 1.75879 12.942 1.75879 12.5V4.16667C1.75879 3.72464 1.94407 3.30072 2.27386 2.98816C2.60366 2.67559 3.05096 2.5 3.51736 2.5H17.5859C18.0523 2.5 18.4996 2.67559 18.8294 2.98816C19.1592 3.30072 19.3445 3.72464 19.3445 4.16667V12.5C19.3445 12.942 19.1592 13.366 18.8294 13.6785C18.4996 13.9911 18.0523 14.1667 17.5859 14.1667H16.7066" stroke="#64748B" stroke-width="1.5" stroke-linecap="round" stroke-linejoin="round"/>
<path d="M10.5512 12.5L14.9476 17.5H6.15479L10.5512 12.5Z" stroke="#64748B" stroke-width="1.5" stroke-linecap="round" stroke-linejoin="round"/>
</svg>
