<svg width="22" height="21" viewBox="0 0 22 21" fill="none" xmlns="http://www.w3.org/2000/svg">
<path d="M18.4873 13.5013V6.83463C18.487 6.54235 18.4056 6.2553 18.2512 6.00226C18.0969 5.74922 17.8751 5.53909 17.608 5.39296L11.453 2.05963C11.1857 1.91334 10.8824 1.83633 10.5737 1.83633C10.265 1.83633 9.96177 1.91334 9.69443 2.05963L3.53944 5.39296C3.27237 5.53909 3.05054 5.74922 2.89621 6.00226C2.74188 6.2553 2.66047 6.54235 2.66016 6.83463V13.5013C2.66047 13.7936 2.74188 14.0806 2.89621 14.3337C3.05054 14.5867 3.27237 14.7968 3.53944 14.943L9.69443 18.2763C9.96177 18.4226 10.265 18.4996 10.5737 18.4996C10.8824 18.4996 11.1857 18.4226 11.453 18.2763L17.608 14.943C17.8751 14.7968 18.0969 14.5867 18.2512 14.3337C18.4056 14.0806 18.487 13.7936 18.4873 13.5013Z" stroke="#64748B" stroke-width="1.5" stroke-linecap="round" stroke-linejoin="round"/>
<path d="M6.61719 3.6763L10.574 5.84297L14.5307 3.6763" stroke="#64748B" stroke-width="1.4" stroke-linecap="round" stroke-linejoin="round"/>
<path d="M6.61694 16.6596V12.3346L2.66016 10.168" stroke="#64748B" stroke-width="1.4" stroke-linecap="round" stroke-linejoin="round"/>
<path d="M18.4875 10.168L14.5308 12.3346V16.6596" stroke="#64748B" stroke-width="1.4" stroke-linecap="round" stroke-linejoin="round"/>
<path d="M2.89795 5.96796L10.5741 10.1763L18.2503 5.96796" stroke="#64748B" stroke-width="1.4" stroke-linecap="round" stroke-linejoin="round"/>
<path d="M10.5737 18.568V10.168" stroke="#64748B" stroke-width="1.4" stroke-linecap="round" stroke-linejoin="round"/>
</svg>
