<svg width="18" height="18" viewBox="0 0 18 18" fill="none" xmlns="http://www.w3.org/2000/svg">
<path d="M5 1H3C1.89543 1 1 1.89543 1 3V15C1 16.1046 1.89543 17 3 17H5C6.10457 17 7 16.1046 7 15V3C7 1.89543 6.10457 1 5 1Z" stroke="#64748B" stroke-width="1.5" stroke-linecap="round" stroke-linejoin="round"/>
<path d="M15 1H13C11.8954 1 11 1.89543 11 3V9C11 10.1046 11.8954 11 13 11H15C16.1046 11 17 10.1046 17 9V3C17 1.89543 16.1046 1 15 1Z" stroke="#64748B" stroke-width="1.5" stroke-linecap="round" stroke-linejoin="round"/>
</svg>
