<svg width="24" height="24" viewBox="0 0 24 24" fill="none" xmlns="http://www.w3.org/2000/svg">
<path d="M13.0339 4.18591C15.7899 5.40927 17.8791 7.01612 18.9592 7.94477C19.5051 8.4141 19.8094 9.08957 19.8471 9.80843C19.8988 10.7956 19.9615 12.3404 19.9615 14.0298C19.9615 15.3295 19.9244 16.5845 19.8838 17.57C19.8366 18.7133 18.9275 19.615 17.7839 19.6541C16.4657 19.6991 14.5097 19.7441 11.9616 19.7441C9.41343 19.7441 7.45743 19.6991 6.1392 19.6541C4.99563 19.615 4.08659 18.7133 4.03937 17.57C3.99867 16.5846 3.96155 15.3295 3.96155 14.0298C3.96155 12.3404 4.02428 10.7956 4.07605 9.80839C4.11376 9.08953 4.41809 8.4141 4.96391 7.94481C6.04396 7.01616 8.13321 5.40928 10.8893 4.18591C11.5717 3.88302 12.3515 3.88302 13.0339 4.18591Z" stroke="#2563EB" stroke-width="1.5" stroke-linecap="round" stroke-linejoin="round"/>
<path d="M8.91394 17.0774H15.0092" stroke="#2563EB" stroke-width="1.5" stroke-linecap="round" stroke-linejoin="round"/>
<rect x="0.5" y="0.5" width="23" height="23" stroke="black"/>
<rect x="0.5" y="0.5" width="23" height="23" stroke="black" stroke-opacity="0.2"/>
</svg>
