<svg width="14" height="14" viewBox="0 0 14 14" fill="none" xmlns="http://www.w3.org/2000/svg">
<g clip-path="url(#clip0_612_10425)">
<path fill-rule="evenodd" clip-rule="evenodd" d="M7.00008 1.6665C4.05456 1.6665 1.66675 4.05432 1.66675 6.99984C1.66675 9.94536 4.05456 12.3332 7.00008 12.3332C9.9456 12.3332 12.3334 9.94536 12.3334 6.99984C12.3334 4.05432 9.9456 1.6665 7.00008 1.6665ZM0.666748 6.99984C0.666748 3.50203 3.50228 0.666504 7.00008 0.666504C10.4979 0.666504 13.3334 3.50203 13.3334 6.99984C13.3334 10.4976 10.4979 13.3332 7.00008 13.3332C3.50228 13.3332 0.666748 10.4976 0.666748 6.99984Z" fill="#8B8B8B"/>
<path fill-rule="evenodd" clip-rule="evenodd" d="M7.00024 3C7.27639 3 7.50024 3.22386 7.50024 3.5V6.69098L9.55718 7.71945C9.80417 7.84295 9.90429 8.14328 9.78079 8.39027C9.6573 8.63726 9.35696 8.73737 9.10997 8.61388L6.77664 7.44721C6.60725 7.36252 6.50024 7.18939 6.50024 7V3.5C6.50024 3.22386 6.7241 3 7.00024 3Z" fill="#8B8B8B"/>
</g>
<defs>
<clipPath id="clip0_612_10425">
<rect width="14" height="14" fill="white" transform="translate(0.000244141)"/>
</clipPath>
</defs>
</svg>
