<svg width="25" height="24" viewBox="0 0 25 24" fill="none" xmlns="http://www.w3.org/2000/svg">
<path fill-rule="evenodd" clip-rule="evenodd" d="M4.56229 2.05546C5.07802 1.53973 5.77749 1.25 6.50684 1.25H13.5068C13.7057 1.25 13.8965 1.32902 14.0372 1.46967L21.0372 8.46967C21.1778 8.61032 21.2568 8.80109 21.2568 9V20C21.2568 20.7293 20.9671 21.4288 20.4514 21.9445C19.9357 22.4603 19.2362 22.75 18.5068 22.75H6.50684C5.77749 22.75 5.07802 22.4603 4.56229 21.9445C4.04657 21.4288 3.75684 20.7293 3.75684 20V4C3.75684 3.27065 4.04657 2.57118 4.56229 2.05546ZM6.50684 2.75C6.17532 2.75 5.85737 2.8817 5.62295 3.11612C5.38853 3.35054 5.25684 3.66848 5.25684 4V20C5.25684 20.3315 5.38853 20.6495 5.62295 20.8839C5.85737 21.1183 6.17532 21.25 6.50684 21.25H18.5068C18.8384 21.25 19.1563 21.1183 19.3907 20.8839C19.6251 20.6495 19.7568 20.3315 19.7568 20V9.31066L13.1962 2.75H6.50684Z" fill="#E2D900"/>
<path fill-rule="evenodd" clip-rule="evenodd" d="M13.5068 1.25C13.921 1.25 14.2568 1.58579 14.2568 2V8.25H20.5068C20.921 8.25 21.2568 8.58579 21.2568 9C21.2568 9.41421 20.921 9.75 20.5068 9.75H13.5068C13.0926 9.75 12.7568 9.41421 12.7568 9V2C12.7568 1.58579 13.0926 1.25 13.5068 1.25Z" fill="#E2D900"/>
</svg>
