<svg width="24" height="24" viewBox="0 0 24 24" fill="none" xmlns="http://www.w3.org/2000/svg">
<path fill-rule="evenodd" clip-rule="evenodd" d="M4 4.75C3.31421 4.75 2.75 5.31421 2.75 6V18C2.75 18.6858 3.31421 19.25 4 19.25H20C20.6858 19.25 21.25 18.6858 21.25 18V6C21.25 5.31421 20.6858 4.75 20 4.75H4ZM1.25 6C1.25 4.48579 2.48579 3.25 4 3.25H20C21.5142 3.25 22.75 4.48579 22.75 6V18C22.75 19.5142 21.5142 20.75 20 20.75H4C2.48579 20.75 1.25 19.5142 1.25 18V6Z" fill="#8B8B8B"/>
<path fill-rule="evenodd" clip-rule="evenodd" d="M1.38552 5.56997C1.62305 5.23063 2.0907 5.1481 2.43004 5.38564L11.9999 12.0846L21.5698 5.38564C21.9092 5.1481 22.3768 5.23063 22.6144 5.56997C22.8519 5.9093 22.7694 6.37695 22.43 6.61449L12.43 13.6145C12.1718 13.7953 11.8281 13.7953 11.5698 13.6145L1.56985 6.61449C1.23051 6.37695 1.14798 5.9093 1.38552 5.56997Z" fill="#8B8B8B"/>
</svg>
