<svg width="24" height="24" viewBox="0 0 24 24" fill="none" xmlns="http://www.w3.org/2000/svg">
<path fill-rule="evenodd" clip-rule="evenodd" d="M9 20.75C8.86193 20.75 8.75 20.8619 8.75 21C8.75 21.1381 8.86193 21.25 9 21.25C9.13807 21.25 9.25 21.1381 9.25 21C9.25 20.8619 9.13807 20.75 9 20.75ZM7.25 21C7.25 20.0335 8.0335 19.25 9 19.25C9.9665 19.25 10.75 20.0335 10.75 21C10.75 21.9665 9.9665 22.75 9 22.75C8.0335 22.75 7.25 21.9665 7.25 21Z" fill="#8B8B8B"/>
<path fill-rule="evenodd" clip-rule="evenodd" d="M20 20.75C19.8619 20.75 19.75 20.8619 19.75 21C19.75 21.1381 19.8619 21.25 20 21.25C20.1381 21.25 20.25 21.1381 20.25 21C20.25 20.8619 20.1381 20.75 20 20.75ZM18.25 21C18.25 20.0335 19.0335 19.25 20 19.25C20.9665 19.25 21.75 20.0335 21.75 21C21.75 21.9665 20.9665 22.75 20 22.75C19.0335 22.75 18.25 21.9665 18.25 21Z" fill="#8B8B8B"/>
<path fill-rule="evenodd" clip-rule="evenodd" d="M0.25 1C0.25 0.585786 0.585786 0.25 1 0.25H5C5.35747 0.25 5.66526 0.502289 5.73541 0.852807L6.61551 5.25H23C23.2235 5.25 23.4354 5.3497 23.5779 5.52192C23.7204 5.69414 23.7786 5.92093 23.7367 6.1405L22.1357 14.5361C22.0099 15.1692 21.6655 15.7378 21.1628 16.1425C20.662 16.5456 20.0359 16.7605 19.3934 16.75H9.68664C9.04405 16.7605 8.41799 16.5456 7.91725 16.1425C7.41473 15.738 7.07043 15.1697 6.94455 14.537C6.94449 14.5367 6.94461 14.5373 6.94455 14.537L5.27255 6.18328C5.26672 6.16005 5.26197 6.13639 5.25836 6.11235L4.38524 1.75H1C0.585786 1.75 0.25 1.41421 0.25 1ZM6.91573 6.75L8.41563 14.2439C8.47278 14.5316 8.62932 14.7901 8.85785 14.9741C9.08637 15.158 9.37232 15.2558 9.66563 15.2501L9.68 15.25H19.4L19.4144 15.2501C19.7077 15.2558 19.9936 15.158 20.2222 14.9741C20.45 14.7906 20.6063 14.5331 20.6639 14.2463C20.664 14.2455 20.6642 14.2447 20.6644 14.2439L22.0935 6.75H6.91573Z" fill="#8B8B8B"/>
</svg>
