<svg width="25" height="25" viewBox="0 0 25 25" fill="none" xmlns="http://www.w3.org/2000/svg">
<path d="M25 12.5C25 19.4036 19.4036 25 12.5 25C5.59644 25 0 19.4036 0 12.5C0 5.59644 5.59644 0 12.5 0C19.4036 0 25 5.59644 25 12.5Z" fill="#38D81E"/>
<path fill-rule="evenodd" clip-rule="evenodd" d="M20.3738 7.29289C20.7643 7.68342 20.7643 8.31658 20.3738 8.70711L11.2071 17.8738C11.0196 18.0613 10.7653 18.1667 10.5 18.1667C10.2348 18.1667 9.98047 18.0613 9.79293 17.8738L5.62627 13.7071C5.23574 13.3166 5.23574 12.6834 5.62627 12.2929C6.01679 11.9024 6.64996 11.9024 7.04048 12.2929L10.5 15.7525L18.9596 7.29289C19.3501 6.90237 19.9833 6.90237 20.3738 7.29289Z" fill="white"/>
</svg>
