<svg width="25" height="24" viewBox="0 0 25 24" fill="none" xmlns="http://www.w3.org/2000/svg">
<path fill-rule="evenodd" clip-rule="evenodd" d="M4.90101 15.6412C5.79181 14.7504 6.99999 14.25 8.25977 14.25H16.2598C17.5195 14.25 18.7277 14.7504 19.6185 15.6412C20.5093 16.532 21.0098 17.7402 21.0098 19V21C21.0098 21.4142 20.674 21.75 20.2598 21.75C19.8456 21.75 19.5098 21.4142 19.5098 21V19C19.5098 18.138 19.1674 17.3114 18.5579 16.7019C17.9484 16.0924 17.1217 15.75 16.2598 15.75H8.25977C7.39781 15.75 6.57116 16.0924 5.96167 16.7019C5.35218 17.3114 5.00977 18.138 5.00977 19V21C5.00977 21.4142 4.67398 21.75 4.25977 21.75C3.84555 21.75 3.50977 21.4142 3.50977 21V19C3.50977 17.7402 4.01021 16.532 4.90101 15.6412Z" fill="#8B8B8B"/>
<path fill-rule="evenodd" clip-rule="evenodd" d="M12.2598 3.75C10.4648 3.75 9.00977 5.20507 9.00977 7C9.00977 8.79493 10.4648 10.25 12.2598 10.25C14.0547 10.25 15.5098 8.79493 15.5098 7C15.5098 5.20507 14.0547 3.75 12.2598 3.75ZM7.50977 7C7.50977 4.37665 9.63641 2.25 12.2598 2.25C14.8831 2.25 17.0098 4.37665 17.0098 7C17.0098 9.62335 14.8831 11.75 12.2598 11.75C9.63641 11.75 7.50977 9.62335 7.50977 7Z" fill="#8B8B8B"/>
</svg>
